<?xml version="1.0" encoding="utf-8" standalone="no"?>
<!DOCTYPE svg PUBLIC "-//W3C//DTD SVG 1.1//EN"
  "http://www.w3.org/Graphics/SVG/1.1/DTD/svg11.dtd">
<!-- Created with matplotlib (http://matplotlib.org/) -->
<svg height="720pt" version="1.1" viewBox="0 0 1008 720" width="1008pt" xmlns="http://www.w3.org/2000/svg" xmlns:xlink="http://www.w3.org/1999/xlink">
 <defs>
  <style type="text/css">
*{stroke-linecap:butt;stroke-linejoin:round;stroke-miterlimit:100000;}
  </style>
 </defs>
 <g id="figure_1">
  <g id="patch_1">
   <path d="M 0 720 
L 1008 720 
L 1008 0 
L 0 0 
z
" style="fill:#ffffff;"/>
  </g>
  <g id="axes_1">
   <g id="patch_2">
    <path d="M 60.48 676.8 
L 947.52 676.8 
L 947.52 43.2 
L 60.48 43.2 
z
" style="fill:#ffffff;"/>
   </g>
   <g id="patch_3">
    <path clip-path="url(#p191e06619c)" d="M 60.48 676.8 
L 169.414737 676.8 
L 169.414737 533.529501 
L 60.48 533.529501 
z
" style="fill:#1f43ae;"/>
   </g>
   <g id="patch_4">
    <path clip-path="url(#p191e06619c)" d="M 216.101053 676.8 
L 325.035789 676.8 
L 325.035789 119.321456 
L 216.101053 119.321456 
z
" style="fill:#1f43ae;"/>
   </g>
   <g id="patch_5">
    <path clip-path="url(#p191e06619c)" d="M 371.722105 676.8 
L 480.656842 676.8 
L 480.656842 421.555853 
L 371.722105 421.555853 
z
" style="fill:#1f43ae;"/>
   </g>
   <g id="patch_6">
    <path clip-path="url(#p191e06619c)" d="M 527.343158 676.8 
L 636.277895 676.8 
L 636.277895 608.803416 
L 527.343158 608.803416 
z
" style="fill:#1f43ae;"/>
   </g>
   <g id="patch_7">
    <path clip-path="url(#p191e06619c)" d="M 682.964211 676.8 
L 791.898947 676.8 
L 791.898947 650.858094 
L 682.964211 650.858094 
z
" style="fill:#1f43ae;"/>
   </g>
   <g id="patch_8">
    <path clip-path="url(#p191e06619c)" d="M 838.585263 676.8 
L 947.52 676.8 
L 947.52 671.778796 
L 838.585263 671.778796 
z
" style="fill:#1f43ae;"/>
   </g>
   <g id="patch_9">
    <path d="M 947.52 676.8 
L 947.52 43.2 
" style="fill:none;stroke:#ffffff;stroke-linecap:square;stroke-linejoin:miter;"/>
   </g>
   <g id="patch_10">
    <path d="M 60.48 43.2 
L 947.52 43.2 
" style="fill:none;stroke:#f1f1f1;stroke-linecap:square;stroke-linejoin:miter;"/>
   </g>
   <g id="patch_11">
    <path d="M 60.48 676.8 
L 947.52 676.8 
" style="fill:none;stroke:#f1f1f1;stroke-linecap:square;stroke-linejoin:miter;"/>
   </g>
   <g id="patch_12">
    <path d="M 60.48 676.8 
L 60.48 43.2 
" style="fill:none;stroke:#ffffff;stroke-linecap:square;stroke-linejoin:miter;"/>
   </g>
   <g id="matplotlib.axis_1">
    <g id="xtick_1">
     <g id="text_1">
      <!-- africa -->
      <defs>
       <path d="M 21.90625 57.59375 
L 21.90625 53.203125 
L 35.90625 53.203125 
L 35.90625 44.203125 
L 21.90625 44.203125 
L 21.90625 0 
L 10.703125 0 
L 10.703125 44.203125 
L 4 44.203125 
L 4 53.203125 
L 10.703125 53.203125 
L 10.703125 57.296875 
Q 10.703125 65.703125 15.75 70.640625 
Q 20.796875 75.59375 27.9375 75.59375 
Q 35.09375 75.59375 41 70.296875 
L 36.40625 62.40625 
Q 33.09375 65.90625 29.5 65.90625 
Q 25.90625 65.90625 23.90625 63.65625 
Q 21.90625 61.40625 21.90625 57.59375 
" id="Montserrat-Regular-66"/>
       <path d="M 36 42.703125 
Q 27.703125 42.703125 23.5 37.296875 
Q 19.296875 31.90625 19.296875 22.796875 
L 19.296875 0 
L 8.09375 0 
L 8.09375 53.203125 
L 19.296875 53.203125 
L 19.296875 42.5 
Q 22 47.5 26.640625 50.703125 
Q 31.296875 53.90625 36.5 54 
L 36.59375 42.703125 
Q 36.296875 42.703125 36 42.703125 
" id="Montserrat-Regular-72"/>
       <path d="M 19.296875 0 
L 8.09375 0 
L 8.09375 53.203125 
L 19.296875 53.203125 
z
M 10.90625 61.703125 
Q 6.703125 65.90625 6.703125 68.796875 
Q 6.703125 71.703125 8.796875 73.796875 
Q 10.90625 75.90625 13.796875 75.90625 
Q 16.703125 75.90625 18.796875 73.796875 
Q 20.90625 71.703125 20.90625 68.796875 
Q 20.90625 65.90625 18.796875 63.796875 
Q 16.703125 61.703125 13.796875 61.703125 
Q 10.90625 61.703125 6.703125 65.90625 
" id="Montserrat-Regular-69"/>
       <path d="M 31.703125 -0.796875 
Q 20.59375 -0.796875 12.59375 6.75 
Q 4.59375 14.296875 4.59375 26.5 
Q 4.59375 38.703125 12.9375 46.34375 
Q 21.296875 54 33.296875 54 
Q 45.296875 54 53.59375 45.703125 
L 47 37.59375 
Q 40.09375 43.59375 33.09375 43.59375 
Q 26.09375 43.59375 20.9375 38.9375 
Q 15.796875 34.296875 15.796875 26.9375 
Q 15.796875 19.59375 20.890625 14.5 
Q 26 9.40625 33.453125 9.40625 
Q 40.90625 9.40625 47.5 16.203125 
L 54.09375 9 
Q 44.40625 -0.796875 31.703125 -0.796875 
" id="Montserrat-Regular-63"/>
       <path d="M 51.203125 0 
L 41 0 
L 41 7.09375 
Q 34.40625 -0.796875 23.296875 -0.796875 
Q 15 -0.796875 9.546875 3.890625 
Q 4.09375 8.59375 4.09375 16.4375 
Q 4.09375 24.296875 9.890625 28.1875 
Q 15.703125 32.09375 25.59375 32.09375 
L 40.09375 32.09375 
L 40.09375 34.09375 
Q 40.09375 44.703125 28.296875 44.703125 
Q 20.90625 44.703125 12.90625 39.296875 
L 7.90625 46.296875 
Q 17.59375 54 29.90625 54 
Q 39.296875 54 45.25 49.25 
Q 51.203125 44.5 51.203125 34.296875 
z
M 40 19.796875 
L 40 24.296875 
L 27.40625 24.296875 
Q 15.296875 24.296875 15.296875 16.703125 
Q 15.296875 12.796875 18.296875 10.75 
Q 21.296875 8.703125 26.640625 8.703125 
Q 32 8.703125 36 11.703125 
Q 40 14.703125 40 19.796875 
" id="Montserrat-Regular-61"/>
      </defs>
      <g style="fill:#333333;" transform="translate(104.246380587 701.373425205)rotate(-20.0)scale(0.1 -0.1)">
       <use xlink:href="#Montserrat-Regular-61"/>
       <use x="58.69999694824219" xlink:href="#Montserrat-Regular-66"/>
       <use x="97.29998779296875" xlink:href="#Montserrat-Regular-72"/>
       <use x="136.99998474121094" xlink:href="#Montserrat-Regular-69"/>
       <use x="164.3999786376953" xlink:href="#Montserrat-Regular-63"/>
       <use x="221.99996948242188" xlink:href="#Montserrat-Regular-61"/>
      </g>
     </g>
    </g>
    <g id="xtick_2">
     <g id="text_2">
      <!-- asia -->
      <defs>
       <path d="M 46 23.5 
Q 46 8.296875 40.5 3.75 
Q 35 -0.796875 26.40625 -0.796875 
Q 20.59375 -0.796875 14.34375 1.296875 
Q 8.09375 3.40625 3.296875 7.203125 
L 8.703125 15.90625 
Q 18 8.90625 26.703125 8.90625 
Q 30.5 8.90625 32.703125 10.65625 
Q 34.90625 12.40625 34.90625 15.09375 
Q 34.90625 19.09375 24.296875 22.296875 
Q 23.5 22.59375 23.09375 22.703125 
Q 6.5 27.203125 6.5 37.703125 
Q 6.5 45.09375 12.25 49.546875 
Q 18 54 27.203125 54 
Q 36.40625 54 44.59375 48.59375 
L 40.40625 40.296875 
Q 33.90625 44.59375 26.296875 44.59375 
Q 22.296875 44.59375 19.796875 43.140625 
Q 17.296875 41.703125 17.296875 38.796875 
Q 17.296875 36.203125 19.90625 35 
Q 21.703125 34.09375 24.953125 33.296875 
Q 28.203125 32.5 30.703125 31.703125 
Q 33.203125 30.90625 35.546875 29.90625 
Q 37.90625 28.90625 40.59375 27.09375 
Q 46 23.5 46 8.296875 
" id="Montserrat-Regular-73"/>
      </defs>
      <g style="fill:#333333;" transform="translate(267.88271762 698.456100263)rotate(-20.0)scale(0.1 -0.1)">
       <use xlink:href="#Montserrat-Regular-61"/>
       <use x="58.69999694824219" xlink:href="#Montserrat-Regular-73"/>
       <use x="109.29998779296875" xlink:href="#Montserrat-Regular-69"/>
       <use x="136.69998168945312" xlink:href="#Montserrat-Regular-61"/>
      </g>
     </g>
    </g>
    <g id="xtick_3">
     <g id="text_3">
      <!-- europe -->
      <defs>
       <path d="M 15.796875 18.90625 
Q 25.296875 9.203125 32.59375 9.203125 
Q 39.90625 9.203125 44.65625 14.046875 
Q 49.40625 18.90625 49.40625 26.59375 
Q 49.40625 34.296875 44.65625 39.140625 
Q 39.90625 44 32.59375 44 
Q 25.296875 44 20.546875 39.140625 
Q 15.796875 34.296875 15.796875 26.59375 
Q 15.796875 18.90625 25.296875 9.203125 
M 60.59375 15.09375 
Q 44.59375 -0.796875 32.59375 -0.796875 
Q 20.59375 -0.796875 12.59375 7.140625 
Q 4.59375 15.09375 4.59375 26.59375 
Q 4.59375 38.09375 12.59375 46.046875 
Q 20.59375 54 32.59375 54 
Q 44.59375 54 52.59375 46.046875 
Q 60.59375 38.09375 60.59375 26.59375 
Q 60.59375 15.09375 44.59375 -0.796875 
" id="Montserrat-Regular-6f"/>
       <path d="M 25.90625 54 
Q 47.296875 54 54.890625 46.59375 
Q 62.5 39.203125 62.5 26.890625 
Q 62.5 14.59375 54.953125 6.890625 
Q 47.40625 -0.796875 37.34375 -0.796875 
Q 27.296875 -0.796875 19.296875 8 
L 19.296875 -19.40625 
L 8.09375 -19.40625 
L 8.09375 53.203125 
L 19.296875 53.203125 
L 19.296875 43.90625 
Q 25.90625 54 47.296875 54 
M 19.09375 34.09375 
Q 19.09375 18.90625 23.6875 14.046875 
Q 28.296875 9.203125 34.890625 9.203125 
Q 41.5 9.203125 46.390625 14 
Q 51.296875 18.796875 51.296875 26.4375 
Q 51.296875 34.09375 46.5 39.140625 
Q 41.703125 44.203125 35 44.203125 
Q 28.296875 44.203125 23.6875 39.140625 
Q 19.09375 34.09375 19.09375 18.90625 
" id="Montserrat-Regular-70"/>
       <path d="M 57.59375 21.703125 
L 15.90625 21.703125 
Q 16.296875 15.90625 21.1875 12.34375 
Q 26.09375 8.796875 32.40625 8.796875 
Q 42.40625 8.796875 47.59375 15.09375 
L 54 8.09375 
Q 45.40625 -0.796875 31.59375 -0.796875 
Q 20.40625 -0.796875 12.546875 6.640625 
Q 4.703125 14.09375 4.703125 26.640625 
Q 4.703125 39.203125 12.703125 46.59375 
Q 20.703125 54 31.546875 54 
Q 42.40625 54 50 47.453125 
Q 57.59375 40.90625 57.59375 29.40625 
z
M 15.90625 30.5 
L 46.40625 30.5 
Q 46.40625 37.203125 42.203125 40.796875 
Q 38 44.40625 31.84375 44.40625 
Q 25.703125 44.40625 20.796875 40.65625 
Q 15.90625 36.90625 15.90625 30.5 
" id="Montserrat-Regular-65"/>
       <path d="M 45.296875 24.40625 
L 45.296875 53.203125 
L 56.5 53.203125 
L 56.5 0 
L 45.296875 0 
L 45.296875 9.703125 
Q 42.59375 4.796875 37.84375 2 
Q 33.09375 -0.796875 27.59375 -0.796875 
Q 18.59375 -0.796875 13.046875 4.703125 
Q 7.5 10.203125 7.5 20.59375 
L 7.5 53.203125 
L 18.703125 53.203125 
L 18.703125 24 
Q 18.703125 9.296875 30.90625 9.296875 
Q 36.703125 9.296875 41 13.140625 
Q 45.296875 17 45.296875 24.40625 
" id="Montserrat-Regular-75"/>
      </defs>
      <g style="fill:#333333;" transform="translate(408.009119897 704.095691783)rotate(-20.0)scale(0.1 -0.1)">
       <use xlink:href="#Montserrat-Regular-65"/>
       <use x="61.79998779296875" xlink:href="#Montserrat-Regular-75"/>
       <use x="126.39997863769531" xlink:href="#Montserrat-Regular-72"/>
       <use x="166.0999755859375" xlink:href="#Montserrat-Regular-6f"/>
       <use x="231.2999725341797" xlink:href="#Montserrat-Regular-70"/>
       <use x="298.4999694824219" xlink:href="#Montserrat-Regular-65"/>
      </g>
     </g>
    </g>
    <g id="xtick_4">
     <g id="text_4">
      <!-- latin america -->
      <defs>
       <path d="M 19.296875 0 
L 8.09375 0 
L 8.09375 74.203125 
L 19.296875 74.203125 
z
" id="Montserrat-Regular-6c"/>
       <path d="M 21.90625 44.203125 
L 21.90625 17.203125 
Q 21.90625 13.40625 23.90625 11.15625 
Q 25.90625 8.90625 29.5 8.90625 
Q 33.09375 8.90625 36.40625 12.40625 
L 41 4.5 
Q 35.09375 -0.796875 27.9375 -0.796875 
Q 20.796875 -0.796875 15.75 4.140625 
Q 10.703125 9.09375 10.703125 17.5 
L 10.703125 44.203125 
L 4 44.203125 
L 4 53.203125 
L 10.703125 53.203125 
L 10.703125 69.90625 
L 21.90625 69.90625 
L 21.90625 53.203125 
L 35.90625 53.203125 
L 35.90625 44.203125 
z
" id="Montserrat-Regular-74"/>
       <path d="M 19.296875 28.796875 
L 19.296875 0 
L 8.09375 0 
L 8.09375 53.203125 
L 19.296875 53.203125 
L 19.296875 43.5 
Q 22 48.40625 26.75 51.203125 
Q 31.5 54 37 54 
Q 46 54 51.546875 48.5 
Q 57.09375 43 57.09375 32.59375 
L 57.09375 0 
L 45.90625 0 
L 45.90625 29.203125 
Q 45.90625 43.90625 33.703125 43.90625 
Q 27.90625 43.90625 23.59375 40.046875 
Q 19.296875 36.203125 19.296875 28.796875 
" id="Montserrat-Regular-6e"/>
       <path d="M 19.296875 28.796875 
L 19.296875 0 
L 8.09375 0 
L 8.09375 53.203125 
L 19.296875 53.203125 
L 19.296875 43.5 
Q 21.703125 48.40625 26.546875 51.203125 
Q 31.40625 54 37 54 
Q 49.59375 54 54.09375 43.59375 
Q 62 54 73.796875 54 
Q 82.796875 54 88.34375 48.5 
Q 93.90625 43 93.90625 32.59375 
L 93.90625 0 
L 82.703125 0 
L 82.703125 29.203125 
Q 82.703125 43.90625 70.5 43.90625 
Q 64.796875 43.90625 60.546875 40.25 
Q 56.296875 36.59375 56.09375 29.59375 
L 56.09375 0 
L 44.90625 0 
L 44.90625 29.203125 
Q 44.90625 36.796875 42.203125 40.34375 
Q 39.5 43.90625 33.703125 43.90625 
Q 27.90625 43.90625 23.59375 40.046875 
Q 19.296875 36.203125 19.296875 28.796875 
" id="Montserrat-Regular-6d"/>
       <path id="Montserrat-Regular-20"/>
      </defs>
      <g style="fill:#333333;" transform="translate(536.160314337 714.093902504)rotate(-20.0)scale(0.1 -0.1)">
       <use xlink:href="#Montserrat-Regular-6c"/>
       <use x="27.399993896484375" xlink:href="#Montserrat-Regular-61"/>
       <use x="86.09999084472656" xlink:href="#Montserrat-Regular-74"/>
       <use x="127.89997863769531" xlink:href="#Montserrat-Regular-69"/>
       <use x="155.2999725341797" xlink:href="#Montserrat-Regular-6e"/>
       <use x="219.89996337890625" xlink:href="#Montserrat-Regular-20"/>
       <use x="247.29995727539062" xlink:href="#Montserrat-Regular-61"/>
       <use x="305.9999542236328" xlink:href="#Montserrat-Regular-6d"/>
       <use x="407.3999481201172" xlink:href="#Montserrat-Regular-65"/>
       <use x="469.19993591308594" xlink:href="#Montserrat-Regular-72"/>
       <use x="508.8999328613281" xlink:href="#Montserrat-Regular-69"/>
       <use x="536.2999267578125" xlink:href="#Montserrat-Regular-63"/>
       <use x="593.8999176025391" xlink:href="#Montserrat-Regular-61"/>
      </g>
     </g>
    </g>
    <g id="xtick_5">
     <g id="text_5">
      <!-- north america -->
      <defs>
       <path d="M 19.296875 28.796875 
L 19.296875 0 
L 8.09375 0 
L 8.09375 74.09375 
L 19.296875 74.09375 
L 19.296875 43.5 
Q 21.703125 48.40625 26.546875 51.203125 
Q 31.40625 54 37 54 
Q 46 54 51.546875 48.5 
Q 57.09375 43 57.09375 32.59375 
L 57.09375 0 
L 45.90625 0 
L 45.90625 29.203125 
Q 45.90625 43.90625 33.703125 43.90625 
Q 27.90625 43.90625 23.59375 40.046875 
Q 19.296875 36.203125 19.296875 28.796875 
" id="Montserrat-Regular-68"/>
      </defs>
      <g style="fill:#333333;" transform="translate(686.520556562 716.0086809)rotate(-20.0)scale(0.1 -0.1)">
       <use xlink:href="#Montserrat-Regular-6e"/>
       <use x="64.59999084472656" xlink:href="#Montserrat-Regular-6f"/>
       <use x="129.79998779296875" xlink:href="#Montserrat-Regular-72"/>
       <use x="169.49998474121094" xlink:href="#Montserrat-Regular-74"/>
       <use x="211.2999725341797" xlink:href="#Montserrat-Regular-68"/>
       <use x="275.89996337890625" xlink:href="#Montserrat-Regular-20"/>
       <use x="303.2999572753906" xlink:href="#Montserrat-Regular-61"/>
       <use x="361.9999542236328" xlink:href="#Montserrat-Regular-6d"/>
       <use x="463.3999481201172" xlink:href="#Montserrat-Regular-65"/>
       <use x="525.1999359130859" xlink:href="#Montserrat-Regular-72"/>
       <use x="564.8999328613281" xlink:href="#Montserrat-Regular-69"/>
       <use x="592.2999267578125" xlink:href="#Montserrat-Regular-63"/>
       <use x="649.8999176025391" xlink:href="#Montserrat-Regular-61"/>
      </g>
     </g>
    </g>
    <g id="xtick_6">
     <g id="text_6">
      <!-- oceania -->
      <g style="fill:#333333;" transform="translate(871.705220006 705.248406547)rotate(-20.0)scale(0.1 -0.1)">
       <use xlink:href="#Montserrat-Regular-6f"/>
       <use x="65.19999694824219" xlink:href="#Montserrat-Regular-63"/>
       <use x="122.79998779296875" xlink:href="#Montserrat-Regular-65"/>
       <use x="184.5999755859375" xlink:href="#Montserrat-Regular-61"/>
       <use x="243.2999725341797" xlink:href="#Montserrat-Regular-6e"/>
       <use x="307.89996337890625" xlink:href="#Montserrat-Regular-69"/>
       <use x="335.2999572753906" xlink:href="#Montserrat-Regular-61"/>
      </g>
     </g>
    </g>
   </g>
   <g id="matplotlib.axis_2">
    <g id="ytick_1">
     <g id="line2d_1">
      <path clip-path="url(#p191e06619c)" d="M 60.48 676.8 
L 947.52 676.8 
" style="fill:none;opacity:0.3;stroke:#000000;stroke-dasharray:1.000000,3.000000;stroke-dashoffset:0.0;stroke-width:0.5;"/>
     </g>
     <g id="line2d_2">
      <defs>
       <path d="M 0 0 
L 4 0 
" id="m8a204aaeb6" style="stroke:#333333;stroke-width:0.5;"/>
      </defs>
      <g>
       <use style="fill:#333333;stroke:#333333;stroke-width:0.5;" x="60.48" xlink:href="#m8a204aaeb6" y="676.8"/>
      </g>
     </g>
     <g id="line2d_3">
      <defs>
       <path d="M 0 0 
L -4 0 
" id="mad11861d38" style="stroke:#333333;stroke-width:0.5;"/>
      </defs>
      <g>
       <use style="fill:#333333;stroke:#333333;stroke-width:0.5;" x="947.52" xlink:href="#mad11861d38" y="676.8"/>
      </g>
     </g>
     <g id="text_7">
      <!-- 0 -->
      <defs>
       <path d="M 25.59375 61.5 
Q 17.296875 47.09375 17.296875 35.390625 
Q 17.296875 23.703125 21.4375 16.5 
Q 25.59375 9.296875 34.390625 9.296875 
Q 43.203125 9.296875 47.25 16.4375 
Q 51.296875 23.59375 51.296875 35.390625 
Q 51.296875 47.203125 47.25 54.34375 
Q 43.203125 61.5 34.390625 61.5 
Q 25.59375 61.5 17.296875 47.09375 
M 20.09375 -0.796875 
Q 5.90625 18.90625 5.90625 35.40625 
Q 5.90625 51.90625 13 61.75 
Q 20.09375 71.59375 34.390625 71.59375 
Q 48.703125 71.59375 55.796875 61.75 
Q 62.90625 51.90625 62.90625 35.40625 
Q 62.90625 18.90625 55.796875 9.046875 
Q 48.703125 -0.796875 34.390625 -0.796875 
Q 20.09375 -0.796875 5.90625 18.90625 
" id="Montserrat-Regular-30"/>
      </defs>
      <g style="fill:#333333;" transform="translate(43.6003125 679.53984375)scale(0.1 -0.1)">
       <use xlink:href="#Montserrat-Regular-30"/>
      </g>
     </g>
     <g id="text_8">
      <!-- 0 -->
      <g style="fill:#333333;" transform="translate(957.52 679.53984375)scale(0.1 -0.1)">
       <use xlink:href="#Montserrat-Regular-30"/>
      </g>
     </g>
    </g>
    <g id="ytick_2">
     <g id="line2d_4">
      <path clip-path="url(#p191e06619c)" d="M 60.48 571.2 
L 947.52 571.2 
" style="fill:none;opacity:0.3;stroke:#000000;stroke-dasharray:1.000000,3.000000;stroke-dashoffset:0.0;stroke-width:0.5;"/>
     </g>
     <g id="line2d_5">
      <g>
       <use style="fill:#333333;stroke:#333333;stroke-width:0.5;" x="60.48" xlink:href="#m8a204aaeb6" y="571.2"/>
      </g>
     </g>
     <g id="line2d_6">
      <g>
       <use style="fill:#333333;stroke:#333333;stroke-width:0.5;" x="947.52" xlink:href="#mad11861d38" y="571.2"/>
      </g>
     </g>
     <g id="text_9">
      <!-- 10 -->
      <defs>
       <path d="M 2.90625 69.90625 
L 28.296875 69.90625 
L 28.296875 0 
L 17.09375 0 
L 17.09375 59.40625 
L 2.90625 59.40625 
z
" id="Montserrat-Regular-31"/>
      </defs>
      <g style="fill:#333333;" transform="translate(39.7909375 573.93984375)scale(0.1 -0.1)">
       <use xlink:href="#Montserrat-Regular-31"/>
       <use x="38.09999084472656" xlink:href="#Montserrat-Regular-30"/>
      </g>
     </g>
     <g id="text_10">
      <!-- 10 -->
      <g style="fill:#333333;" transform="translate(957.52 573.93984375)scale(0.1 -0.1)">
       <use xlink:href="#Montserrat-Regular-31"/>
       <use x="38.09999084472656" xlink:href="#Montserrat-Regular-30"/>
      </g>
     </g>
    </g>
    <g id="ytick_3">
     <g id="line2d_7">
      <path clip-path="url(#p191e06619c)" d="M 60.48 465.6 
L 947.52 465.6 
" style="fill:none;opacity:0.3;stroke:#000000;stroke-dasharray:1.000000,3.000000;stroke-dashoffset:0.0;stroke-width:0.5;"/>
     </g>
     <g id="line2d_8">
      <g>
       <use style="fill:#333333;stroke:#333333;stroke-width:0.5;" x="60.48" xlink:href="#m8a204aaeb6" y="465.6"/>
      </g>
     </g>
     <g id="line2d_9">
      <g>
       <use style="fill:#333333;stroke:#333333;stroke-width:0.5;" x="947.52" xlink:href="#mad11861d38" y="465.6"/>
      </g>
     </g>
     <g id="text_11">
      <!-- 20 -->
      <defs>
       <path d="M 27 31.296875 
Q 34.09375 38.5 37.09375 42.59375 
Q 40.09375 46.703125 40.09375 50.890625 
Q 40.09375 55.09375 36.890625 58.046875 
Q 33.703125 61 28.796875 61 
Q 20.203125 61 14.5 52.203125 
L 5 57.703125 
Q 9.59375 64.59375 15.140625 68.09375 
Q 20.703125 71.59375 29.453125 71.59375 
Q 38.203125 71.59375 44.796875 66.046875 
Q 51.40625 60.5 51.40625 50.90625 
Q 51.40625 45.5 48.59375 40.59375 
Q 45.796875 35.703125 38.296875 28 
L 21.90625 11.296875 
L 53.59375 11.296875 
L 53.59375 0 
L 5.796875 0 
L 5.796875 10 
L 27 31.296875 
z
" id="Montserrat-Regular-32"/>
      </defs>
      <g style="fill:#333333;" transform="translate(37.7096875 468.33984375)scale(0.1 -0.1)">
       <use xlink:href="#Montserrat-Regular-32"/>
       <use x="58.899993896484375" xlink:href="#Montserrat-Regular-30"/>
      </g>
     </g>
     <g id="text_12">
      <!-- 20 -->
      <g style="fill:#333333;" transform="translate(957.52 468.33984375)scale(0.1 -0.1)">
       <use xlink:href="#Montserrat-Regular-32"/>
       <use x="58.899993896484375" xlink:href="#Montserrat-Regular-30"/>
      </g>
     </g>
    </g>
    <g id="ytick_4">
     <g id="line2d_10">
      <path clip-path="url(#p191e06619c)" d="M 60.48 360 
L 947.52 360 
" style="fill:none;opacity:0.3;stroke:#000000;stroke-dasharray:1.000000,3.000000;stroke-dashoffset:0.0;stroke-width:0.5;"/>
     </g>
     <g id="line2d_11">
      <g>
       <use style="fill:#333333;stroke:#333333;stroke-width:0.5;" x="60.48" xlink:href="#m8a204aaeb6" y="360.0"/>
      </g>
     </g>
     <g id="line2d_12">
      <g>
       <use style="fill:#333333;stroke:#333333;stroke-width:0.5;" x="947.52" xlink:href="#mad11861d38" y="360.0"/>
      </g>
     </g>
     <g id="text_13">
      <!-- 30 -->
      <defs>
       <path d="M 7.703125 59.40625 
L 7.703125 69.90625 
L 48.59375 69.90625 
L 48.59375 60.703125 
L 31.703125 41.796875 
Q 41.296875 41.5 46.6875 35.75 
Q 52.09375 30 52.09375 22 
Q 52.09375 11.296875 44.84375 5.1875 
Q 37.59375 -0.90625 26.1875 -0.90625 
Q 14.796875 -0.90625 3.90625 6.40625 
L 8.90625 15.90625 
Q 17.5 9.90625 26.90625 9.90625 
Q 33 9.90625 36.953125 12.75 
Q 40.90625 15.59375 40.90625 20.9375 
Q 40.90625 26.296875 36.5 29.5 
Q 32.09375 32.703125 24.296875 32.703125 
Q 20.40625 32.703125 16.796875 31.59375 
L 16.796875 40.59375 
L 33 59.40625 
z
" id="Montserrat-Regular-33"/>
      </defs>
      <g style="fill:#333333;" transform="translate(37.820625 362.73984375)scale(0.1 -0.1)">
       <use xlink:href="#Montserrat-Regular-33"/>
       <use x="57.79998779296875" xlink:href="#Montserrat-Regular-30"/>
      </g>
     </g>
     <g id="text_14">
      <!-- 30 -->
      <g style="fill:#333333;" transform="translate(957.52 362.73984375)scale(0.1 -0.1)">
       <use xlink:href="#Montserrat-Regular-33"/>
       <use x="57.79998779296875" xlink:href="#Montserrat-Regular-30"/>
      </g>
     </g>
    </g>
    <g id="ytick_5">
     <g id="line2d_13">
      <path clip-path="url(#p191e06619c)" d="M 60.48 254.4 
L 947.52 254.4 
" style="fill:none;opacity:0.3;stroke:#000000;stroke-dasharray:1.000000,3.000000;stroke-dashoffset:0.0;stroke-width:0.5;"/>
     </g>
     <g id="line2d_14">
      <g>
       <use style="fill:#333333;stroke:#333333;stroke-width:0.5;" x="60.48" xlink:href="#m8a204aaeb6" y="254.4"/>
      </g>
     </g>
     <g id="line2d_15">
      <g>
       <use style="fill:#333333;stroke:#333333;stroke-width:0.5;" x="947.52" xlink:href="#mad11861d38" y="254.4"/>
      </g>
     </g>
     <g id="text_15">
      <!-- 40 -->
      <defs>
       <path d="M 33.703125 28.296875 
L 33.703125 41.09375 
L 44.90625 41.09375 
L 44.90625 28.296875 
L 53.296875 28.296875 
L 53.296875 17.59375 
L 44.90625 17.59375 
L 44.90625 0 
L 33.703125 0 
L 33.703125 17.59375 
L 3.703125 17.59375 
L 3.703125 28 
L 29.40625 69.90625 
L 42.296875 69.90625 
L 17 28.296875 
z
" id="Montserrat-Regular-34"/>
      </defs>
      <g style="fill:#333333;" transform="translate(37.88 257.13984375)scale(0.1 -0.1)">
       <use xlink:href="#Montserrat-Regular-34"/>
       <use x="57.19999694824219" xlink:href="#Montserrat-Regular-30"/>
      </g>
     </g>
     <g id="text_16">
      <!-- 40 -->
      <g style="fill:#333333;" transform="translate(957.52 257.13984375)scale(0.1 -0.1)">
       <use xlink:href="#Montserrat-Regular-34"/>
       <use x="57.19999694824219" xlink:href="#Montserrat-Regular-30"/>
      </g>
     </g>
    </g>
    <g id="ytick_6">
     <g id="line2d_16">
      <path clip-path="url(#p191e06619c)" d="M 60.48 148.8 
L 947.52 148.8 
" style="fill:none;opacity:0.3;stroke:#000000;stroke-dasharray:1.000000,3.000000;stroke-dashoffset:0.0;stroke-width:0.5;"/>
     </g>
     <g id="line2d_17">
      <g>
       <use style="fill:#333333;stroke:#333333;stroke-width:0.5;" x="60.48" xlink:href="#m8a204aaeb6" y="148.8"/>
      </g>
     </g>
     <g id="line2d_18">
      <g>
       <use style="fill:#333333;stroke:#333333;stroke-width:0.5;" x="947.52" xlink:href="#mad11861d38" y="148.8"/>
      </g>
     </g>
     <g id="text_17">
      <!-- 50 -->
      <defs>
       <path d="M 48.59375 70 
L 48.59375 59.296875 
L 19.09375 59.296875 
L 19.09375 42.09375 
Q 23.5 44.5 29.09375 44.5 
Q 38.90625 44.5 46 38.59375 
Q 53.09375 32.703125 53.09375 22.59375 
Q 53.09375 12.5 45.6875 5.84375 
Q 38.296875 -0.796875 27.5 -0.796875 
Q 13.40625 -0.796875 5 8.59375 
L 11.296875 17.203125 
Q 12.09375 16.40625 13.4375 15.296875 
Q 14.796875 14.203125 19 12.34375 
Q 23.203125 10.5 28.203125 10.5 
Q 33.203125 10.5 37.296875 13.5 
Q 41.40625 16.5 41.40625 22.25 
Q 41.40625 28 37.046875 31.140625 
Q 32.703125 34.296875 26.046875 34.296875 
Q 19.40625 34.296875 13.40625 31 
L 8.40625 36.40625 
L 8.40625 70 
z
" id="Montserrat-Regular-35"/>
      </defs>
      <g style="fill:#333333;" transform="translate(37.8096875 151.53984375)scale(0.1 -0.1)">
       <use xlink:href="#Montserrat-Regular-35"/>
       <use x="57.899993896484375" xlink:href="#Montserrat-Regular-30"/>
      </g>
     </g>
     <g id="text_18">
      <!-- 50 -->
      <g style="fill:#333333;" transform="translate(957.52 151.53984375)scale(0.1 -0.1)">
       <use xlink:href="#Montserrat-Regular-35"/>
       <use x="57.899993896484375" xlink:href="#Montserrat-Regular-30"/>
      </g>
     </g>
    </g>
    <g id="ytick_7">
     <g id="line2d_19">
      <path clip-path="url(#p191e06619c)" d="M 60.48 43.2 
L 947.52 43.2 
" style="fill:none;opacity:0.3;stroke:#000000;stroke-dasharray:1.000000,3.000000;stroke-dashoffset:0.0;stroke-width:0.5;"/>
     </g>
     <g id="line2d_20">
      <g>
       <use style="fill:#333333;stroke:#333333;stroke-width:0.5;" x="60.48" xlink:href="#m8a204aaeb6" y="43.2"/>
      </g>
     </g>
     <g id="line2d_21">
      <g>
       <use style="fill:#333333;stroke:#333333;stroke-width:0.5;" x="947.52" xlink:href="#mad11861d38" y="43.2"/>
      </g>
     </g>
     <g id="text_19">
      <!-- 60 -->
      <defs>
       <path d="M 35.40625 60.59375 
Q 26.09375 60.59375 21.6875 54.296875 
Q 17.296875 48 17.203125 37.296875 
Q 19.703125 40.09375 24.390625 42.546875 
Q 29.09375 45 34.796875 45 
Q 44.203125 45 50.546875 38.75 
Q 56.90625 32.5 56.90625 22.140625 
Q 56.90625 11.796875 50.046875 5.5 
Q 43.203125 -0.796875 32.796875 -0.796875 
Q 16 -0.796875 9.59375 14.203125 
Q 6 22.796875 6 33.59375 
Q 6 44.40625 8.296875 51.59375 
Q 10.59375 58.796875 14.59375 63 
Q 22.40625 71.203125 33.75 71.203125 
Q 45.09375 71.203125 54.296875 64.09375 
L 48.40625 55.40625 
Q 46.09375 57.40625 42.25 59 
Q 38.40625 60.59375 35.40625 60.59375 
M 39.296875 34.59375 
Q 27.203125 34.59375 23.140625 31.25 
Q 19.09375 27.90625 19.09375 22.546875 
Q 19.09375 17.203125 23 13.34375 
Q 26.90625 9.5 32.796875 9.5 
Q 38.703125 9.5 42.59375 12.953125 
Q 46.5 16.40625 46.5 21.75 
Q 46.5 27.09375 42.890625 30.84375 
Q 39.296875 34.59375 27.203125 34.59375 
" id="Montserrat-Regular-36"/>
      </defs>
      <g style="fill:#333333;" transform="translate(37.4003125 45.93984375)scale(0.1 -0.1)">
       <use xlink:href="#Montserrat-Regular-36"/>
       <use x="61.99998474121094" xlink:href="#Montserrat-Regular-30"/>
      </g>
     </g>
     <g id="text_20">
      <!-- 60 -->
      <g style="fill:#333333;" transform="translate(957.52 45.93984375)scale(0.1 -0.1)">
       <use xlink:href="#Montserrat-Regular-36"/>
       <use x="61.99998474121094" xlink:href="#Montserrat-Regular-30"/>
      </g>
     </g>
    </g>
   </g>
   <g id="legend_1">
    <g id="patch_13">
     <path d="M 69.48 59.790625 
L 89.48 59.790625 
L 89.48 52.790625 
L 69.48 52.790625 
z
" style="fill:#1f43ae;"/>
    </g>
    <g id="text_21">
     <!-- % of total adult beings -->
     <defs>
      <path d="M 57.296875 53.203125 
L 57.296875 6.796875 
Q 57.296875 -7.296875 49.640625 -14.34375 
Q 42 -21.40625 30 -21.40625 
Q 18 -21.40625 8.296875 -13.90625 
L 13.59375 -5.40625 
Q 21.40625 -11.296875 29.34375 -11.296875 
Q 37.296875 -11.296875 41.9375 -7.1875 
Q 46.59375 -3.09375 46.59375 5.90625 
L 46.59375 12.703125 
Q 44.09375 8 39.4375 5.203125 
Q 34.796875 2.40625 29 2.40625 
Q 18.40625 2.40625 11.59375 9.796875 
Q 4.796875 17.203125 4.796875 28.203125 
Q 4.796875 39.203125 11.59375 46.59375 
Q 18.40625 54 28.953125 54 
Q 39.5 54 46.09375 45.296875 
L 46.09375 53.203125 
z
M 15.796875 35.203125 
Q 15.796875 22.09375 19.84375 17.34375 
Q 23.90625 12.59375 30.75 12.59375 
Q 37.59375 12.59375 41.84375 17.1875 
Q 46.09375 21.796875 46.09375 28.640625 
Q 46.09375 35.5 41.796875 40.25 
Q 37.5 45 30.703125 45 
Q 23.90625 45 19.84375 40.09375 
Q 15.796875 35.203125 15.796875 22.09375 
" id="Montserrat-Regular-67"/>
      <path d="M 29.796875 -0.796875 
Q 19.703125 -0.796875 12.203125 6.796875 
Q 4.703125 14.40625 4.703125 26.796875 
Q 4.703125 39.203125 12.390625 46.59375 
Q 20.09375 54 30.75 54 
Q 41.40625 54 47.90625 45 
L 47.90625 74.203125 
L 59.09375 74.203125 
L 59.09375 0 
L 47.90625 0 
L 47.90625 8 
Q 41.703125 -0.796875 29.796875 -0.796875 
z
M 15.90625 34 
Q 15.90625 18.703125 20.796875 13.890625 
Q 25.703125 9.09375 32.296875 9.09375 
Q 38.90625 9.09375 43.5 13.9375 
Q 48.09375 18.796875 48.09375 26.390625 
Q 48.09375 34 43.5 39.09375 
Q 38.90625 44.203125 32.203125 44.203125 
Q 25.5 44.203125 20.703125 39.09375 
Q 15.90625 34 15.90625 18.703125 
" id="Montserrat-Regular-64"/>
      <path d="M 26 71.59375 
Q 34.59375 62.296875 34.59375 55.6875 
Q 34.59375 49.09375 30.25 44.390625 
Q 25.90625 39.703125 19.453125 39.703125 
Q 13 39.703125 8.703125 44.34375 
Q 4.40625 49 4.40625 55.59375 
Q 4.40625 62.203125 8.75 66.890625 
Q 13.09375 71.59375 19.546875 71.59375 
Q 26 71.59375 34.59375 62.296875 
M 71 69.90625 
L 19.796875 0 
L 6.90625 0 
L 58.09375 69.90625 
z
M 22 48.40625 
Q 25.203125 52.5 25.203125 55.5 
Q 25.203125 58.5 23.5 60.546875 
Q 21.796875 62.59375 19.34375 62.59375 
Q 16.90625 62.59375 15.296875 60.546875 
Q 13.703125 58.5 13.703125 55.5 
Q 13.703125 52.5 15.390625 50.453125 
Q 17.09375 48.40625 19.546875 48.40625 
Q 22 48.40625 25.203125 52.5 
M 65.703125 31.09375 
Q 74.296875 21.796875 74.296875 15.1875 
Q 74.296875 8.59375 69.9375 3.890625 
Q 65.59375 -0.796875 59.140625 -0.796875 
Q 52.703125 -0.796875 48.390625 3.84375 
Q 44.09375 8.5 44.09375 15.09375 
Q 44.09375 21.703125 48.4375 26.390625 
Q 52.796875 31.09375 59.25 31.09375 
Q 65.703125 31.09375 74.296875 21.796875 
M 61.90625 7.703125 
Q 65.09375 11.796875 65.09375 14.796875 
Q 65.09375 17.796875 63.390625 19.84375 
Q 61.703125 21.90625 59.25 21.90625 
Q 56.796875 21.90625 55.1875 19.84375 
Q 53.59375 17.796875 53.59375 14.796875 
Q 53.59375 11.796875 55.296875 9.75 
Q 57 7.703125 59.453125 7.703125 
Q 61.90625 7.703125 65.09375 11.796875 
" id="Montserrat-Regular-25"/>
      <path d="M 25.90625 54 
Q 47.296875 54 54.890625 46.59375 
Q 62.5 39.203125 62.5 26.890625 
Q 62.5 14.59375 54.953125 6.890625 
Q 47.40625 -0.796875 37.34375 -0.796875 
Q 27.296875 -0.796875 19.296875 8 
L 19.296875 0 
L 8.09375 0 
L 8.09375 74.203125 
L 19.296875 74.203125 
L 19.296875 43.90625 
Q 25.90625 54 47.296875 54 
M 19.09375 34.09375 
Q 19.09375 18.90625 23.6875 14.046875 
Q 28.296875 9.203125 34.890625 9.203125 
Q 41.5 9.203125 46.390625 14 
Q 51.296875 18.796875 51.296875 26.4375 
Q 51.296875 34.09375 46.5 39.140625 
Q 41.703125 44.203125 35 44.203125 
Q 28.296875 44.203125 23.6875 39.140625 
Q 19.09375 34.09375 19.09375 18.90625 
" id="Montserrat-Regular-62"/>
     </defs>
     <g style="fill:#333333;" transform="translate(97.48 59.790625)scale(0.1 -0.1)">
      <use xlink:href="#Montserrat-Regular-25"/>
      <use x="78.59999084472656" xlink:href="#Montserrat-Regular-20"/>
      <use x="105.99998474121094" xlink:href="#Montserrat-Regular-6f"/>
      <use x="171.19998168945312" xlink:href="#Montserrat-Regular-66"/>
      <use x="209.7999725341797" xlink:href="#Montserrat-Regular-20"/>
      <use x="237.19996643066406" xlink:href="#Montserrat-Regular-74"/>
      <use x="278.9999542236328" xlink:href="#Montserrat-Regular-6f"/>
      <use x="344.199951171875" xlink:href="#Montserrat-Regular-74"/>
      <use x="385.99993896484375" xlink:href="#Montserrat-Regular-61"/>
      <use x="444.69993591308594" xlink:href="#Montserrat-Regular-6c"/>
      <use x="472.0999298095703" xlink:href="#Montserrat-Regular-20"/>
      <use x="499.4999237060547" xlink:href="#Montserrat-Regular-61"/>
      <use x="558.1999206542969" xlink:href="#Montserrat-Regular-64"/>
      <use x="625.3999176025391" xlink:href="#Montserrat-Regular-75"/>
      <use x="689.9999084472656" xlink:href="#Montserrat-Regular-6c"/>
      <use x="717.39990234375" xlink:href="#Montserrat-Regular-74"/>
      <use x="759.1998901367188" xlink:href="#Montserrat-Regular-20"/>
      <use x="786.5998840332031" xlink:href="#Montserrat-Regular-62"/>
      <use x="853.7998809814453" xlink:href="#Montserrat-Regular-65"/>
      <use x="915.5998687744141" xlink:href="#Montserrat-Regular-69"/>
      <use x="942.9998626708984" xlink:href="#Montserrat-Regular-6e"/>
      <use x="1007.599853515625" xlink:href="#Montserrat-Regular-67"/>
      <use x="1072.9998474121094" xlink:href="#Montserrat-Regular-73"/>
     </g>
    </g>
   </g>
  </g>
  <g id="text_22">
   <!-- Riverworld Distribution Of Adult Beings Continents Amongst All Adult Beings Ever Born -->
   <defs>
    <path d="M 40.296875 0 
L 9.703125 0 
L 9.703125 69.90625 
L 36.90625 69.90625 
Q 44 69.90625 49.140625 68.203125 
Q 54.296875 66.5 56.796875 63.59375 
Q 61.59375 58.203125 61.59375 51.40625 
Q 61.59375 43.203125 56.40625 39.203125 
Q 54.5 37.796875 53.796875 37.4375 
Q 53.09375 37.09375 51.296875 36.296875 
Q 57.796875 34.90625 61.640625 30.453125 
Q 65.5 26 65.5 19.40625 
Q 65.5 12.09375 60.5 6.5 
Q 54.59375 0 40.296875 0 
M 21.5 40.90625 
L 36.5 40.90625 
Q 49.296875 40.90625 49.296875 49.59375 
Q 49.296875 54.59375 46.1875 56.796875 
Q 43.09375 59 36.59375 59 
L 21.5 59 
z
M 21.5 10.90625 
L 40 10.90625 
Q 46.5 10.90625 49.953125 12.953125 
Q 53.40625 15 53.40625 20.703125 
Q 53.40625 30 38.5 30 
L 21.5 30 
z
" id="Montserrat-Regular-42"/>
    <path d="M 65.5 47.203125 
Q 65.5 29.90625 50.40625 25.40625 
L 68.703125 0 
L 53.703125 0 
L 37 23.5 
L 21.5 23.5 
L 21.5 0 
L 9.703125 0 
L 9.703125 69.90625 
L 35.703125 69.90625 
Q 51.703125 69.90625 58.59375 64.5 
Q 65.5 59.09375 65.5 47.203125 
M 36.203125 34.203125 
Q 46.203125 34.203125 49.796875 37.296875 
Q 53.40625 40.40625 53.40625 47.25 
Q 53.40625 54.09375 49.703125 56.640625 
Q 46 59.203125 36.5 59.203125 
L 21.5 59.203125 
L 21.5 34.203125 
L 36.203125 34.203125 
z
" id="Montserrat-Regular-52"/>
    <path d="M 66.703125 46 
Q 52.40625 60.796875 42 60.796875 
Q 31.59375 60.796875 24.4375 53.390625 
Q 17.296875 46 17.296875 35.453125 
Q 17.296875 24.90625 24.4375 17.5 
Q 31.59375 10.09375 42 10.09375 
Q 52.40625 10.09375 59.546875 17.5 
Q 66.703125 24.90625 66.703125 35.453125 
Q 66.703125 46 52.40625 60.796875 
M 78.796875 20 
Q 57.59375 -0.703125 42 -0.703125 
Q 26.40625 -0.703125 15.796875 9.640625 
Q 5.203125 20 5.203125 35.453125 
Q 5.203125 50.90625 15.796875 61.25 
Q 26.40625 71.59375 42 71.59375 
Q 57.59375 71.59375 68.1875 61.25 
Q 78.796875 50.90625 78.796875 35.453125 
Q 78.796875 20 57.59375 -0.703125 
" id="Montserrat-Regular-4f"/>
    <path d="M 33 0 
L 20.203125 0 
L 1.796875 53.203125 
L 13.40625 53.203125 
L 26.59375 13 
L 39.796875 53.203125 
L 51.40625 53.203125 
L 64.59375 13 
L 77.796875 53.203125 
L 89.40625 53.203125 
L 71 0 
L 58.203125 0 
L 45.59375 36.40625 
z
" id="Montserrat-Regular-77"/>
    <path d="M 19.59375 15.90625 
L 12.59375 0 
L 0 0 
L 30.796875 69.90625 
L 43.40625 69.90625 
L 74.203125 0 
L 61.59375 0 
L 54.59375 15.90625 
z
M 49.796875 26.796875 
L 37.09375 55.59375 
L 24.40625 26.796875 
z
" id="Montserrat-Regular-41"/>
    <path d="M 22.203125 0 
L 0.796875 53.203125 
L 12.40625 53.203125 
L 28.59375 13 
L 44.796875 53.203125 
L 56.40625 53.203125 
L 35 0 
z
" id="Montserrat-Regular-76"/>
    <path d="M 58.796875 69.90625 
L 58.796875 58.796875 
L 21.5 58.796875 
L 21.5 40.296875 
L 55 40.296875 
L 55 29.796875 
L 21.5 29.796875 
L 21.5 11.09375 
L 60 11.09375 
L 60 0 
L 9.703125 0 
L 9.703125 69.90625 
z
" id="Montserrat-Regular-45"/>
    <path d="M 33.703125 69.90625 
Q 52.5 69.90625 62.59375 60.75 
Q 72.703125 51.59375 72.703125 35.296875 
Q 72.703125 19 62.890625 9.5 
Q 53.09375 0 32.90625 0 
L 9.703125 0 
L 9.703125 69.90625 
L 33.703125 69.90625 
z
M 60.796875 35 
Q 60.796875 59 33.296875 59 
L 21.5 59 
L 21.5 11.09375 
L 34.59375 11.09375 
Q 47.296875 11.09375 54.046875 17.140625 
Q 60.796875 23.203125 60.796875 35 
" id="Montserrat-Regular-44"/>
    <path d="M 41.59375 10.703125 
Q 47.703125 10.703125 52.09375 12.75 
Q 56.5 14.796875 61.296875 19.296875 
L 68.90625 11.5 
Q 57.796875 -0.796875 41.9375 -0.796875 
Q 26.09375 -0.796875 15.640625 9.390625 
Q 5.203125 19.59375 5.203125 35.1875 
Q 5.203125 50.796875 15.84375 61.1875 
Q 26.5 71.59375 42.75 71.59375 
Q 59 71.59375 69.90625 59.59375 
L 62.40625 51.40625 
Q 57.40625 56.203125 52.953125 58.09375 
Q 48.5 60 42.5 60 
Q 31.90625 60 24.703125 53.140625 
Q 17.5 46.296875 17.5 35.640625 
Q 17.5 25 24.640625 17.84375 
Q 31.796875 10.703125 41.59375 10.703125 
" id="Montserrat-Regular-43"/>
   </defs>
   <g style="fill:#333333;" transform="translate(239.2096875 23.50875)scale(0.12 -0.12)">
    <use xlink:href="#Montserrat-Regular-52"/>
    <use x="72.79998779296875" xlink:href="#Montserrat-Regular-69"/>
    <use x="100.19998168945312" xlink:href="#Montserrat-Regular-76"/>
    <use x="157.3999786376953" xlink:href="#Montserrat-Regular-65"/>
    <use x="219.19996643066406" xlink:href="#Montserrat-Regular-72"/>
    <use x="258.89996337890625" xlink:href="#Montserrat-Regular-77"/>
    <use x="350.0999450683594" xlink:href="#Montserrat-Regular-6f"/>
    <use x="415.29994201660156" xlink:href="#Montserrat-Regular-72"/>
    <use x="454.99993896484375" xlink:href="#Montserrat-Regular-6c"/>
    <use x="482.3999328613281" xlink:href="#Montserrat-Regular-64"/>
    <use x="549.5999298095703" xlink:href="#Montserrat-Regular-20"/>
    <use x="576.9999237060547" xlink:href="#Montserrat-Regular-44"/>
    <use x="655.1999053955078" xlink:href="#Montserrat-Regular-69"/>
    <use x="682.5998992919922" xlink:href="#Montserrat-Regular-73"/>
    <use x="733.1998901367188" xlink:href="#Montserrat-Regular-74"/>
    <use x="774.9998779296875" xlink:href="#Montserrat-Regular-72"/>
    <use x="814.6998748779297" xlink:href="#Montserrat-Regular-69"/>
    <use x="842.0998687744141" xlink:href="#Montserrat-Regular-62"/>
    <use x="909.2998657226562" xlink:href="#Montserrat-Regular-75"/>
    <use x="973.8998565673828" xlink:href="#Montserrat-Regular-74"/>
    <use x="1015.6998443603516" xlink:href="#Montserrat-Regular-69"/>
    <use x="1043.099838256836" xlink:href="#Montserrat-Regular-6f"/>
    <use x="1108.2998352050781" xlink:href="#Montserrat-Regular-6e"/>
    <use x="1172.8998260498047" xlink:href="#Montserrat-Regular-20"/>
    <use x="1200.299819946289" xlink:href="#Montserrat-Regular-4f"/>
    <use x="1284.2998046875" xlink:href="#Montserrat-Regular-66"/>
    <use x="1322.8997955322266" xlink:href="#Montserrat-Regular-20"/>
    <use x="1350.299789428711" xlink:href="#Montserrat-Regular-41"/>
    <use x="1424.499771118164" xlink:href="#Montserrat-Regular-64"/>
    <use x="1491.6997680664062" xlink:href="#Montserrat-Regular-75"/>
    <use x="1556.2997589111328" xlink:href="#Montserrat-Regular-6c"/>
    <use x="1583.6997528076172" xlink:href="#Montserrat-Regular-74"/>
    <use x="1625.499740600586" xlink:href="#Montserrat-Regular-20"/>
    <use x="1652.8997344970703" xlink:href="#Montserrat-Regular-42"/>
    <use x="1723.4997253417969" xlink:href="#Montserrat-Regular-65"/>
    <use x="1785.2997131347656" xlink:href="#Montserrat-Regular-69"/>
    <use x="1812.69970703125" xlink:href="#Montserrat-Regular-6e"/>
    <use x="1877.2996978759766" xlink:href="#Montserrat-Regular-67"/>
    <use x="1942.699691772461" xlink:href="#Montserrat-Regular-73"/>
    <use x="1993.2996826171875" xlink:href="#Montserrat-Regular-20"/>
    <use x="2020.6996765136719" xlink:href="#Montserrat-Regular-43"/>
    <use x="2094.2996673583984" xlink:href="#Montserrat-Regular-6f"/>
    <use x="2159.4996643066406" xlink:href="#Montserrat-Regular-6e"/>
    <use x="2224.099655151367" xlink:href="#Montserrat-Regular-74"/>
    <use x="2265.899642944336" xlink:href="#Montserrat-Regular-69"/>
    <use x="2293.2996368408203" xlink:href="#Montserrat-Regular-6e"/>
    <use x="2357.899627685547" xlink:href="#Montserrat-Regular-65"/>
    <use x="2419.6996154785156" xlink:href="#Montserrat-Regular-6e"/>
    <use x="2484.299606323242" xlink:href="#Montserrat-Regular-74"/>
    <use x="2526.099594116211" xlink:href="#Montserrat-Regular-73"/>
    <use x="2576.6995849609375" xlink:href="#Montserrat-Regular-20"/>
    <use x="2604.099578857422" xlink:href="#Montserrat-Regular-41"/>
    <use x="2678.299560546875" xlink:href="#Montserrat-Regular-6d"/>
    <use x="2779.6995544433594" xlink:href="#Montserrat-Regular-6f"/>
    <use x="2844.8995513916016" xlink:href="#Montserrat-Regular-6e"/>
    <use x="2909.499542236328" xlink:href="#Montserrat-Regular-67"/>
    <use x="2974.8995361328125" xlink:href="#Montserrat-Regular-73"/>
    <use x="3025.499526977539" xlink:href="#Montserrat-Regular-74"/>
    <use x="3067.299514770508" xlink:href="#Montserrat-Regular-20"/>
    <use x="3094.699508666992" xlink:href="#Montserrat-Regular-41"/>
    <use x="3168.8994903564453" xlink:href="#Montserrat-Regular-6c"/>
    <use x="3196.2994842529297" xlink:href="#Montserrat-Regular-6c"/>
    <use x="3223.699478149414" xlink:href="#Montserrat-Regular-20"/>
    <use x="3251.0994720458984" xlink:href="#Montserrat-Regular-41"/>
    <use x="3325.2994537353516" xlink:href="#Montserrat-Regular-64"/>
    <use x="3392.4994506835938" xlink:href="#Montserrat-Regular-75"/>
    <use x="3457.0994415283203" xlink:href="#Montserrat-Regular-6c"/>
    <use x="3484.4994354248047" xlink:href="#Montserrat-Regular-74"/>
    <use x="3526.2994232177734" xlink:href="#Montserrat-Regular-20"/>
    <use x="3553.699417114258" xlink:href="#Montserrat-Regular-42"/>
    <use x="3624.2994079589844" xlink:href="#Montserrat-Regular-65"/>
    <use x="3686.099395751953" xlink:href="#Montserrat-Regular-69"/>
    <use x="3713.4993896484375" xlink:href="#Montserrat-Regular-6e"/>
    <use x="3778.099380493164" xlink:href="#Montserrat-Regular-67"/>
    <use x="3843.4993743896484" xlink:href="#Montserrat-Regular-73"/>
    <use x="3894.099365234375" xlink:href="#Montserrat-Regular-20"/>
    <use x="3921.4993591308594" xlink:href="#Montserrat-Regular-45"/>
    <use x="3986.8993530273438" xlink:href="#Montserrat-Regular-76"/>
    <use x="4044.099349975586" xlink:href="#Montserrat-Regular-65"/>
    <use x="4105.899337768555" xlink:href="#Montserrat-Regular-72"/>
    <use x="4145.599334716797" xlink:href="#Montserrat-Regular-20"/>
    <use x="4172.999328613281" xlink:href="#Montserrat-Regular-42"/>
    <use x="4243.599319458008" xlink:href="#Montserrat-Regular-6f"/>
    <use x="4308.79931640625" xlink:href="#Montserrat-Regular-72"/>
    <use x="4348.499313354492" xlink:href="#Montserrat-Regular-6e"/>
   </g>
  </g>
 </g>
 <defs>
  <clipPath id="p191e06619c">
   <rect height="633.6" width="887.04" x="60.48" y="43.2"/>
  </clipPath>
 </defs>
</svg>
